<?xml version="1.0" encoding="UTF-8"?>
<svg id="Layer_2" data-name="Layer 2" xmlns="http://www.w3.org/2000/svg" viewBox="0 0 357 357">
  <defs>
    <style>
      .cls-1 {
        fill: #fffdf4;
      }

      .cls-2 {
        fill: #e76f51;
      }
    </style>
  </defs>
  <g id="Layer_1-2" data-name="Layer 1">
    <rect class="cls-1" width="357" height="357"/>
    <g>
      <path class="cls-2" d="m31.48,180.74c0-.14,0-.27,0-.41,1.44-2.32,2.92-4.61,4.3-6.96,7.52-12.82,15.19-25.55,22.56-38.45,2.81-4.93,5.79-9.76,8.69-14.64,2.14-3.6,4.29-7.19,6.43-10.78.48,0,.96.03,1.44.03,18.93,0,37.87,0,56.8,0,.48,0,.96.02,1.44.03.16.18.31.36.48.53,14.6,14.6,29.21,29.21,43.81,43.81.16.16.34.31.69.64,4.62-4.7,9.18-9.41,13.8-14.05,10.31-10.35,20.65-20.67,30.98-31,.44.01.89.03,1.33.03,12.98,0,25.96,0,38.94,0,6.4,0,12.81.01,19.21.02,13.98,23.69,27.95,47.37,42.02,71.21h-10.96v58.2c-.48.02-.96.05-1.44.05-32.54,0-65.08,0-97.62,0-.45,0-.89-.02-1.34-.03,4.08-5.37,8.17-10.72,12.23-16.1,4.36-5.78,8.81-11.5,13.13-17.32,2.39-3.23,4.76-6.49,7.39-9.54.39-.45.59-1.03.59-1.69-.02-9.4-.01-18.8,0-28.2,0-.38-.03-.74-.23-1.08-.76-1.25-1.51-2.5-2.27-3.75-1.71-2.81-3.43-5.62-5.14-8.44-1.71-2.81-3.44-5.62-5.14-8.44-1.34-2.22-2.56-4.52-4.01-6.67-1.63-2.43-2.96-5.04-4.78-7.62-11.92,12.1-23.82,24.17-35.45,35.97h-22.73c-11.85-11.85-23.77-23.77-35.73-35.73-.12.15-.29.32-.41.52-6.86,11.24-13.72,22.49-20.58,33.72-.28.45-.39.91-.39,1.44.01,9.4.01,18.8,0,28.2,0,.6.1,1.11.5,1.61,1.22,1.55,2.38,3.15,3.58,4.72,5.26,6.88,10.53,13.76,15.79,20.63,2.8,3.65,5.59,7.31,8.37,10.97,1.71,2.25,3.39,4.53,5.08,6.79-.51,0-1.03,0-1.54,0-32.91,0-65.82,0-98.73,0-.03-.48-.07-.95-.07-1.43,0-18.45,0-36.89-.01-55.34,0-.47.1-.95-.15-1.49h-10.85Z"/>
      <path class="cls-2" d="m158.51,226.55v-6.07c.88.01,1.5.62,2.26.84,4,1.16,9.68.69,12.79-3.05.63-.75,1.01-1.57.98-2.66-1.82-.22-3.45-.85-5.04-1.69-1.66-.87-2.87-2.12-3.7-3.77-.77-1.53-.25-4.15.95-5.5,2.06-2.32,4.75-3.37,7.69-3.95,3.34-.65,6.63-.33,9.81.82,2.43.88,4.59,2.12,5.74,4.67.82,1.82-.02,4.56-1.15,5.71-2.15,2.17-4.79,3.12-7.72,3.75.29,1.89,1.33,3.25,2.86,4.23,4.16,2.69,8.5,2.53,12.92.7.15-.06.31-.12.57-.22v5.69c-3.34,2.45-13.49,3.18-19.45-2.33-5.95,4.67-12.5,5.2-19.52,2.82Z"/>
      <path class="cls-2" d="m148.93,193.46c-.24-2.18-1.91-3.23-3.46-3.27-1.69-.05-2.96,1.2-3.37,3.28h-6.85c-.13-3.07,1.06-5.66,3.28-7.58,3.58-3.08,7.72-3.58,11.91-1.37,3.47,1.83,5.27,4.88,5.41,8.95h-6.91Z"/>
      <path class="cls-2" d="m213.81,193.48c-.51-2.05-1.58-3.21-3.31-3.28-2.23-.09-3.24,1.37-3.71,3.31h-6.69c-.17-3.2,1.16-5.74,3.39-7.8,3.26-3.01,8.96-2.92,11.91-1.16,3.34,2,5.12,4.94,5.27,8.93h-6.85Z"/>
      <path class="cls-2" d="m228.39,166.09h-18.43c3.79-3.79,7.74-7.74,11.73-11.73,2.13,3.74,4.37,7.66,6.7,11.73Z"/>
      <path class="cls-2" d="m146.05,166.07h-18.58c2.28-4,4.54-7.95,6.76-11.83,3.99,3.99,7.9,7.91,11.82,11.83Z"/>
    </g>
  </g>
</svg>