<?xml version="1.0" encoding="UTF-8"?>
<svg id="Layer_2" data-name="Layer 2" xmlns="http://www.w3.org/2000/svg" viewBox="0 0 892.52 151.58">
  <defs>
    <style>
      .cls-1 {
        fill: #e76f51;
      }
    </style>
  </defs>
  <g id="Layer_1-2" data-name="Layer 1">
    <g>
      <path class="cls-1" d="m0,83.08c0-.16,0-.32,0-.48,1.67-2.71,3.4-5.38,5.01-8.12,8.77-14.94,17.71-29.78,26.3-44.83,3.28-5.75,6.75-11.38,10.13-17.07C43.95,8.39,46.45,4.2,48.95,0c.56.01,1.12.03,1.68.03,22.08,0,44.15,0,66.23,0,.56,0,1.12.03,1.68.04.19.21.36.42.56.62,17.02,17.03,34.05,34.05,51.08,51.08.19.19.39.36.81.75,5.38-5.48,10.7-10.97,16.09-16.38,12.02-12.07,24.08-24.1,36.12-36.14.52.01,1.04.04,1.56.04,15.13,0,30.27,0,45.4,0,7.47,0,14.93.01,22.4.02,16.3,27.62,32.59,55.23,48.99,83.02h-12.77v67.85c-.56.02-1.12.06-1.68.06-37.94,0-75.88,0-113.82,0-.52,0-1.04-.02-1.56-.03,4.75-6.26,9.53-12.5,14.26-18.77,5.08-6.74,10.28-13.4,15.3-20.19,2.79-3.77,5.55-7.57,8.62-11.13.45-.53.69-1.2.69-1.97-.02-10.96-.02-21.92,0-32.88,0-.45-.03-.87-.27-1.26-.88-1.46-1.77-2.91-2.65-4.37-2-3.28-4-6.56-6-9.83-2-3.28-4.01-6.55-5.99-9.84-1.56-2.59-2.99-5.27-4.67-7.78-1.9-2.83-3.45-5.87-5.57-8.89-13.9,14.11-27.77,28.18-41.33,41.94h-26.5c-13.81-13.81-27.72-27.72-41.65-41.65-.14.18-.34.38-.48.61-8,13.11-15.99,26.22-24,39.32-.32.53-.46,1.06-.46,1.68.01,10.96.01,21.92,0,32.88,0,.7.12,1.3.58,1.88,1.43,1.81,2.78,3.67,4.18,5.5,6.13,8.02,12.27,16.04,18.41,24.06,3.26,4.26,6.52,8.52,9.76,12.79,1.99,2.63,3.95,5.28,5.92,7.92-.6,0-1.2,0-1.8,0-38.37,0-76.74,0-115.1,0-.03-.56-.08-1.11-.09-1.67,0-21.51,0-43.02-.02-64.52,0-.55.11-1.11-.18-1.74H0Z"/>
      <path class="cls-1" d="m148.11,136.49v-7.08c1.02.01,1.75.72,2.64.98,4.66,1.35,11.29.8,14.91-3.56.73-.88,1.18-1.83,1.14-3.1-2.12-.26-4.02-1-5.87-1.97-1.93-1.02-3.34-2.47-4.31-4.39-.9-1.79-.29-4.83,1.11-6.41,2.41-2.7,5.54-3.93,8.96-4.6,3.9-.76,7.73-.38,11.43.96,2.83,1.02,5.35,2.47,6.69,5.44.96,2.13-.02,5.32-1.34,6.65-2.5,2.53-5.59,3.64-9,4.38.34,2.2,1.56,3.79,3.33,4.93,4.85,3.13,9.92,2.95,15.07.81.18-.07.36-.14.66-.26v6.64c-3.9,2.86-15.73,3.7-22.67-2.72-6.94,5.45-14.57,6.06-22.75,3.29Z"/>
      <path class="cls-1" d="m136.94,97.91c-.28-2.54-2.23-3.77-4.04-3.82-1.97-.05-3.46,1.4-3.93,3.83h-7.99c-.15-3.58,1.23-6.6,3.83-8.84,4.17-3.59,9-4.18,13.88-1.6,4.05,2.13,6.14,5.69,6.3,10.43h-8.06Z"/>
      <path class="cls-1" d="m212.58,97.93c-.59-2.4-1.84-3.74-3.86-3.82-2.6-.11-3.77,1.6-4.33,3.86h-7.8c-.2-3.73,1.35-6.69,3.95-9.09,3.8-3.51,10.45-3.41,13.88-1.36,3.89,2.33,5.97,5.76,6.14,10.41h-7.99Z"/>
      <path class="cls-1" d="m229.57,66h-21.48c4.41-4.42,9.03-9.03,13.68-13.68,2.49,4.36,5.1,8.93,7.81,13.68Z"/>
      <path class="cls-1" d="m133.58,65.98h-21.66c2.66-4.66,5.3-9.26,7.88-13.79,4.65,4.66,9.21,9.22,13.78,13.79Z"/>
    </g>
    <g>
      <path class="cls-1" d="m430.47,1.18v149.44h-23.47v-83.13c0-7.91-6.41-14.32-14.32-14.32h0c-7.91,0-14.32,6.41-14.32,14.32v83.13h-23.47V1.18h23.47v31.53h28.64V1.18h23.47Z"/>
      <path class="cls-1" d="m472.39,134.24c2.33,0,4.28-.39,5.86-1.18,1.58-.79,2.85-1.88,3.83-3.27.97-1.39,1.69-2.95,2.14-4.67.45-1.73.68-3.53.68-5.41v-32.99h19.14v32.99c0,4.5-.64,8.67-1.91,12.5-1.28,3.83-3.21,7.17-5.8,10.02-2.59,2.85-5.87,5.07-9.85,6.64-3.98,1.58-8.67,2.36-14.08,2.36s-10.44-.83-14.41-2.48c-3.98-1.65-7.23-3.94-9.74-6.87-2.52-2.93-4.37-6.29-5.57-10.08-1.2-3.79-1.8-7.83-1.8-12.11v-32.99h19.14v32.99c0,1.95.22,3.79.68,5.52.45,1.73,1.18,3.27,2.2,4.62,1.01,1.35,2.29,2.42,3.83,3.21,1.54.79,3.44,1.18,5.69,1.18Z"/>
      <path class="cls-1" d="m566.39,134.01v16.67h-51.12v-63.96h50.22v16.67h-31.08v6.98h26.58v15.54h-26.58v8.11h31.98Z"/>
      <path class="cls-1" d="m578.82,150.68v-63.96h19.14v47.29h27.93v16.67h-47.07Z"/>
      <path class="cls-1" d="m634.4,150.68v-63.96h19.14v47.29h27.93v16.67h-47.07Z"/>
      <path class="cls-1" d="m688.97,150.68v-63.96h19.14v63.96h-19.14Z"/>
      <path class="cls-1" d="m775.44,103.38h-20.83v47.29h-19.26v-47.29h-20.94v-16.67h61.03v16.67Z"/>
      <path class="cls-1" d="m766.54,150.68l27.03-63.96h15.54l26.91,63.96h-20.27l-4.05-11.49h-20.72l-4.05,11.49h-20.38Zm34.8-40.88l-4.49,12.72h8.97l-4.49-12.72Z"/>
      <path class="cls-1" d="m882.5,108.9c-.3-.23-1.39-.81-3.27-1.75-1.88-.94-4.15-1.84-6.81-2.7-2.67-.86-5.35-1.29-8.05-1.29-1.65,0-2.97.13-3.94.39-.98.26-1.46.77-1.46,1.52,0,.9.51,1.62,1.52,2.14,1.01.53,2.48,1.03,4.39,1.52,1.91.49,4.18,1.15,6.81,1.97,4.28,1.2,7.98,2.59,11.09,4.17,3.11,1.58,5.52,3.6,7.21,6.08s2.53,5.74,2.53,9.8-.75,7.3-2.25,9.97c-1.5,2.67-3.53,4.8-6.08,6.42-2.55,1.62-5.39,2.76-8.5,3.44-3.12.68-6.29,1.01-9.52,1.01-5.03,0-10.27-.7-15.71-2.08-5.44-1.39-10.23-3.13-14.36-5.24l8.33-16.78c.45.45,1.75,1.22,3.88,2.31,2.14,1.09,4.82,2.1,8.05,3.04,3.23.94,6.61,1.41,10.13,1.41,1.95,0,3.32-.17,4.11-.51.79-.34,1.18-.73,1.18-1.18,0-1.05-.69-1.86-2.08-2.42-1.39-.56-3.23-1.13-5.52-1.69-2.29-.56-4.83-1.26-7.6-2.08-4.05-1.28-7.36-2.74-9.91-4.39-2.55-1.65-4.45-3.64-5.69-5.97-1.24-2.33-1.86-5.1-1.86-8.33,0-4.65,1.2-8.58,3.6-11.77,2.4-3.19,5.57-5.61,9.51-7.26,3.94-1.65,8.16-2.48,12.67-2.48,5.03,0,9.81.79,14.36,2.36,4.54,1.58,8.35,3.08,11.43,4.5l-8.22,15.88Z"/>
    </g>
    <g>
      <path class="cls-1" d="m472.39,81.06c-5.11,0-9.76-.92-13.96-2.76-4.21-1.84-7.83-4.3-10.87-7.38-3.04-3.08-5.39-6.57-7.04-10.47-1.65-3.9-2.48-7.92-2.48-12.05s.86-8.24,2.59-12.1c1.73-3.87,4.15-7.3,7.26-10.3,3.11-3,6.77-5.39,10.98-7.15,4.2-1.76,8.82-2.65,13.85-2.65s9.87.92,14.08,2.76c4.2,1.84,7.81,4.32,10.81,7.43,3,3.12,5.31,6.63,6.93,10.53,1.61,3.9,2.42,7.88,2.42,11.94s-.84,8.13-2.53,11.99c-1.69,3.87-4.07,7.32-7.15,10.36-3.08,3.04-6.72,5.44-10.92,7.21-4.21,1.77-8.86,2.65-13.96,2.65Zm-14.86-32.43c0,1.95.32,3.85.96,5.69.64,1.84,1.58,3.49,2.82,4.95,1.24,1.46,2.8,2.63,4.67,3.49,1.88.86,4.09,1.29,6.64,1.29s4.77-.45,6.64-1.35c1.88-.9,3.41-2.1,4.62-3.6,1.2-1.5,2.1-3.19,2.7-5.07.6-1.88.9-3.75.9-5.63s-.32-3.85-.96-5.69c-.64-1.84-1.58-3.47-2.82-4.9-1.24-1.43-2.8-2.55-4.67-3.38-1.88-.83-4.05-1.24-6.53-1.24s-4.77.43-6.64,1.29c-1.88.86-3.43,2.05-4.67,3.55-1.24,1.5-2.16,3.15-2.76,4.95-.6,1.8-.9,3.68-.9,5.63Z"/>
      <path class="cls-1" d="m571.67,33.2h-20.83v47.29h-19.26v-47.29h-20.94v-16.67h61.03v16.67Z"/>
      <path class="cls-1" d="m636.09,63.83v16.67h-51.12V16.54h50.22v16.67h-31.08v6.98h26.58v15.54h-26.58v8.11h31.98Z"/>
      <path class="cls-1" d="m649.52,80.5V16.54h19.14v47.29h27.93v16.67h-47.07Z"/>
    </g>
  </g>
</svg>